PathFileType	4	(X/Y/Z)	C:/Users/opensim2020/Desktop/walking_exp_matlab/subject06_walking12_static.trc	
DataRate	CameraRate	NumFrames	NumMarkers	Units	OrigDataRate	OrigDataStartFrame	OrigNumFrames	
100.00	100.00	4	48	mm	100.00	273	363	
Frame#	Time	LFHD			RFHD			LBHD			RBHD			C7			T10			CLAV			STRN			RBAK			LSHO			LUPA			LELB			LFRM			LWRA			LWRB			LFIN			RSHO			RUPA			RELB			RFRM			RWRA			RWRB			RFIN			LASI			RASI			LPSI			RPSI			LTHI			LKNE			LTIB			LANK			LHEE			LTOE			RTHI			RKNE			RTIB			RANK			RHEE			RTOE			*39			*40			*41			*42			*43			*44			*45			*46			*47			
		X1	Y1	Z1	X2	Y2	Z2	X3	Y3	Z3	X4	Y4	Z4	X5	Y5	Z5	X6	Y6	Z6	X7	Y7	Z7	X8	Y8	Z8	X9	Y9	Z9	X10	Y10	Z10	X11	Y11	Z11	X12	Y12	Z12	X13	Y13	Z13	X14	Y14	Z14	X15	Y15	Z15	X16	Y16	Z16	X17	Y17	Z17	X18	Y18	Z18	X19	Y19	Z19	X20	Y20	Z20	X21	Y21	Z21	X22	Y22	Z22	X23	Y23	Z23	X24	Y24	Z24	X25	Y25	Z25	X26	Y26	Z26	X27	Y27	Z27	X28	Y28	Z28	X29	Y29	Z29	X30	Y30	Z30	X31	Y31	Z31	X32	Y32	Z32	X33	Y33	Z33	X34	Y34	Z34	X35	Y35	Z35	X36	Y36	Z36	X37	Y37	Z37	X38	Y38	Z38	X39	Y39	Z39	X40	Y40	Z40	X41	Y41	Z41	X42	Y42	Z42	X43	Y43	Z43	X44	Y44	Z44	X45	Y45	Z45	X46	Y46	Z46	X47	Y47	Z47	X48	Y48	Z48	

273	2.720	389.66226	-652.62317	1677.40015	405.14078	-521.98120	1663.14417	522.05298	-669.26459	1621.50134	535.43060	-540.47784	1613.44373	527.38470	-611.09082	1461.11707	557.87067	-599.37048	1133.83948	414.75488	-603.01825	1388.62476	369.37164	-607.55627	1215.86096	601.27429	-529.37799	1291.00098	462.35709	-767.82269	1418.84033	443.56625	-844.98944	1219.16895	431.41022	-863.04730	1108.57019	376.46121	-894.06116	970.35767	291.20676	-858.98041	870.53229	348.95184	-897.11707	854.13147	288.91092	-902.51208	785.67987	470.87656	-446.83490	1419.59399	475.84109	-348.13635	1225.30334	439.55527	-318.70490	1112.55981	410.67386	-282.00742	1000.26331	333.34048	-282.80087	865.30725	391.33661	-249.27400	866.78424	346.87448	-229.70511	797.64185	380.72260	-700.07520	974.18268	384.48679	-480.44662	981.18060	536.99707	-675.68817	1005.47198	533.58264	-509.58389	1011.50708	482.72437	-779.11792	666.70807	501.69034	-769.11340	503.49915	545.50372	-794.31146	252.71088	543.33270	-771.43817	74.95493	582.90057	-729.40216	56.19694	395.40836	-770.56415	39.20471	479.75751	-412.35568	650.76770	494.45615	-428.10574	525.72919	562.62262	-406.87451	269.59918	575.12024	-436.27509	78.59325	612.91364	-479.43384	51.21438	418.52585	-431.74939	35.89068	496.72925	-604.61218	1713.77417																								 
274	2.730	389.57376	-652.49561	1677.39502	405.01950	-521.82697	1663.14148	521.99109	-669.14075	1621.50220	535.36395	-540.34930	1613.40967	527.34375	-611.02643	1461.09973	557.72034	-599.33557	1133.80176	414.69031	-602.97980	1388.58032	369.35693	-607.53088	1215.77917	601.22382	-529.33856	1290.95898	462.32028	-767.75854	1418.84485	443.52896	-844.97913	1219.18396	431.37360	-863.06866	1108.58533	376.45206	-894.09473	970.38977	291.16760	-859.02698	870.56354	348.89301	-897.17645	854.17688	288.89658	-902.61420	785.73999	470.78455	-446.76849	1419.52173	475.77869	-348.10947	1225.22253	439.45724	-318.67920	1112.47949	410.58066	-282.03372	1000.18384	333.23611	-282.84451	865.20282	391.24304	-249.31392	866.67206	346.80896	-229.74904	797.55023	380.65509	-700.06885	974.16199	384.39694	-480.42975	981.07556	536.93677	-675.69281	1005.45752	533.53046	-509.58041	1011.50793	482.68729	-779.11975	666.70398	501.66394	-769.16162	503.52155	545.48242	-794.30548	252.69666	543.32538	-771.47650	74.97173	582.93353	-729.40320	56.20747	395.40320	-770.54596	39.21461	479.75418	-412.29990	650.79449	494.44409	-428.13370	525.74261	562.62488	-406.88162	269.58191	575.11163	-436.23843	78.60884	612.91760	-479.45438	51.21561	418.54727	-431.80066	35.86340	496.65317	-604.47504	1713.74866																								 
275	2.740	389.52252	-652.36493	1677.38245	404.91211	-521.70612	1663.08167	522.00055	-669.06354	1621.46606	535.27374	-540.21100	1613.35449	527.28418	-610.95093	1461.09705	557.69543	-599.39844	1133.86597	414.64105	-602.92365	1388.55310	369.34995	-607.55243	1215.72693	601.20898	-529.28900	1290.92810	462.28793	-767.74597	1418.85461	443.51413	-844.96637	1219.20532	431.36713	-863.09558	1108.58582	376.41714	-894.12439	970.39044	291.11557	-859.07275	870.59845	348.85318	-897.22516	854.17999	288.83621	-902.64075	785.75037	470.73038	-446.70380	1419.43665	475.71603	-348.04663	1225.13525	439.36710	-318.68427	1112.37354	410.49310	-282.04553	1000.07452	333.13455	-282.85345	865.11090	391.17502	-249.35028	866.56372	346.74045	-229.77457	797.44232	380.58096	-700.05951	974.15845	384.36624	-480.42282	981.04846	536.85724	-675.68597	1005.45428	533.46722	-509.57086	1011.49756	482.65363	-779.11591	666.69141	501.62503	-769.14948	503.50320	545.47498	-794.33527	252.71043	543.32202	-771.43250	74.95271	582.90710	-729.39301	56.16435	395.30374	-770.46625	39.20490	479.69678	-412.32013	650.76538	494.43329	-428.09863	525.75482	562.61108	-406.85797	269.59323	575.10876	-436.26358	78.56735	612.93207	-479.40097	51.21361	418.52649	-431.72128	35.87091	496.59531	-604.33514	1713.72668																								 
276	2.750	389.44806	-652.24548	1677.38672	404.77777	-521.53979	1663.06592	521.89490	-668.89313	1621.49866	535.13281	-540.05524	1613.32983	527.22906	-610.87189	1461.06543	557.72272	-599.31024	1133.80444	414.60266	-602.87469	1388.53052	369.32101	-607.52820	1215.67029	601.14667	-529.21887	1290.89893	462.26486	-767.67383	1418.84790	443.51776	-844.95605	1219.21399	431.33331	-863.05878	1108.58496	376.38089	-894.11768	970.40991	291.06180	-859.10974	870.62671	348.80591	-897.23730	854.20471	288.75555	-902.68884	785.78534	470.67990	-446.64108	1419.36450	475.62589	-348.05768	1225.02258	439.29205	-318.68802	1112.26563	410.42160	-282.07281	999.97772	332.96872	-282.74649	865.01099	391.05826	-249.37901	866.46509	346.61008	-229.81590	797.35156	380.50458	-700.03870	974.12915	384.26880	-480.37216	981.00305	536.80859	-675.69696	1005.44745	533.39990	-509.57910	1011.48578	482.57828	-779.08624	666.68573	501.60379	-769.16473	503.51050	545.45459	-794.34167	252.69766	543.32745	-771.46399	74.96346	582.90930	-729.38757	56.19122	395.29623	-770.46960	39.18306	479.68109	-412.27795	650.77625	494.42548	-428.17169	525.74890	562.59821	-406.83856	269.60278	575.09436	-436.24054	78.55233	612.93634	-479.41205	51.19500	418.54593	-431.77887	35.89259	496.51495	-604.18079	1713.72424																								 
